<?xml version="1.0" encoding="utf-8"?>
<!-- Generator: Adobe Illustrator 17.1.0, SVG Export Plug-In . SVG Version: 6.00 Build 0)  -->
<!DOCTYPE svg PUBLIC "-//W3C//DTD SVG 1.1//EN" "http://www.w3.org/Graphics/SVG/1.1/DTD/svg11.dtd">
<svg version="1.1" id="Layer_1" xmlns="http://www.w3.org/2000/svg" xmlns:xlink="http://www.w3.org/1999/xlink" x="0px" y="0px"
	 viewBox="0 0 512 512" enable-background="new 0 0 512 512" xml:space="preserve">
<g>
	<linearGradient id="SVGID_1_" gradientUnits="userSpaceOnUse" x1="29.5354" y1="313.0966" x2="436.9497" y2="313.0966">
		<stop  offset="0" style="stop-color:#1944F7"/>
		<stop  offset="0.6661" style="stop-color:#096DFC"/>
		<stop  offset="1" style="stop-color:#0084FF"/>
	</linearGradient>
	<path fill="url(#SVGID_1_)" d="M37.3,122.9c0,0,68-7.8,116.9,75.7c23.8,40.6,3.8,130.2,125,145.7c87.5,11.2,134.5,35.7,157.8,92.9
		c0,0-45.4,45.5-114.6,66.3C322.3,503.5-26.4,308.9,37.3,122.9z"/>
	<linearGradient id="SVGID_2_" gradientUnits="userSpaceOnUse" x1="75.4817" y1="198.592" x2="482.8957" y2="198.592">
		<stop  offset="0" style="stop-color:#1944F7"/>
		<stop  offset="0.6661" style="stop-color:#096DFC"/>
		<stop  offset="1" style="stop-color:#0084FF"/>
	</linearGradient>
	<path fill="url(#SVGID_2_)" d="M475.1,388.9c0,0-94.2-40.4-138.1-153.8C292,118.8,145.7,179.2,75.5,74.6c0,0,45.4-45.5,114.6-66.3
		C190.1,8.3,538.8,202.9,475.1,388.9z"/>
	<linearGradient id="SVGID_3_" gradientUnits="userSpaceOnUse" x1="217.9658" y1="293.4194" x2="482.1606" y2="7.4349">
		<stop  offset="0" style="stop-color:#0084FF"/>
		<stop  offset="0.835" style="stop-color:#2BF6E7"/>
	</linearGradient>
	<path fill="url(#SVGID_3_)" d="M512,256.1c0,48-13.2,92.9-36.2,131.3c0.1-0.1-29.9-26.8-39.6-41.5c-18-27.4-21.8-40.4-27.6-72.1
		c-14.3-77.6-46-90.9-84.4-90.3c-28.2,0.5-81.3,1.2-112.7-33.3C148.1,80.8,79.3,70.7,75.5,74.6C121.8,28.6,185.5,0.1,256,0.1
		C397.4,0.1,512,114.8,512,256.1z"/>
	<linearGradient id="SVGID_4_" gradientUnits="userSpaceOnUse" x1="452.0554" y1="-11.1682" x2="352.8283" y2="99.7326">
		<stop  offset="0" style="stop-color:#0084FF"/>
		<stop  offset="1.606061e-002" style="stop-color:#0188FE"/>
		<stop  offset="0.2813" style="stop-color:#18C3F2"/>
		<stop  offset="0.4768" style="stop-color:#26E8EA"/>
		<stop  offset="0.58" style="stop-color:#2BF6E7"/>
	</linearGradient>
	<path opacity="0.4" fill="url(#SVGID_4_)" d="M512,256.1c0,11.7-10.5-89.5-90.3-124.8c-77-34-109.3,9.9-164.3-38.3
		C151.1,0.1,79.3,70.7,75.5,74.6C121.8,28.6,185.5,0.1,256,0.1C397.4,0.1,512,114.8,512,256.1z"/>
	<linearGradient id="SVGID_5_" gradientUnits="userSpaceOnUse" x1="3.0403" y1="499.5307" x2="375.1405" y2="150.7782">
		<stop  offset="9.500000e-002" style="stop-color:#0084FF"/>
		<stop  offset="0.285" style="stop-color:#1CAAFA"/>
		<stop  offset="0.4842" style="stop-color:#34CCF6"/>
		<stop  offset="0.6749" style="stop-color:#46E4F3"/>
		<stop  offset="0.8514" style="stop-color:#50F2F1"/>
		<stop  offset="1" style="stop-color:#54F7F0"/>
	</linearGradient>
	<path fill="url(#SVGID_5_)" d="M436.9,437.2c-71.7,71.7-182.3,94.4-276.4,56.6C78.6,460.8,18,385.7,3.5,298.6
		c-10.1-60.3,1.9-123.4,33.8-175.6c2-3.3,19.7,14.9,21.1,16.7c6.9,9.2,10.4,19.6,14,30.3c9,26.6,13.8,54.4,22.4,81
		c10.2,31.6,30.9,50.2,65.2,47.4c36.7-3.1,105-15.3,133.8,24.3c31.7,43.8,31.5,66,66.5,84.6C377.3,416.5,433.5,428.5,436.9,437.2z"
		/>
	<linearGradient id="SVGID_6_" gradientUnits="userSpaceOnUse" x1="91.2215" y1="491.7228" x2="287.7289" y2="302.9977">
		<stop  offset="0" style="stop-color:#1944F7"/>
		<stop  offset="0.1135" style="stop-color:#194BF7"/>
		<stop  offset="0.2741" style="stop-color:#1B5DF5"/>
		<stop  offset="0.4629" style="stop-color:#1F7CF2"/>
		<stop  offset="0.6731" style="stop-color:#23A6EE"/>
		<stop  offset="0.8984" style="stop-color:#29DCE9"/>
		<stop  offset="1" style="stop-color:#2BF6E7"/>
	</linearGradient>
	<path opacity="0.24" fill="url(#SVGID_6_)" d="M436.9,437.2c-71.7,71.7-182.3,94.4-276.4,56.6C78.6,460.8,18.4,385.6,3.5,298.6
		c-0.8-4.9,59.2,101.5,177.3,90.3C283.9,379.1,308.6,480.2,436.9,437.2z"/>
</g>
</svg>
